<svg width="157" height="46" viewBox="0 0 157 46" fill="none" xmlns="http://www.w3.org/2000/svg">
<path d="M14.1719 21.0469C13.7969 20.849 13.4427 20.7083 13.1094 20.625C12.776 20.5417 12.4375 20.5 12.0938 20.5C10.6042 20.5 9.40625 21.2135 8.5 22.6406C7.59375 24.0573 7.14062 25.9427 7.14062 28.2969C7.14062 29.8073 7.41146 30.9271 7.95312 31.6562C8.50521 32.3854 9.34375 32.75 10.4688 32.75C10.7396 32.75 11.0312 32.724 11.3438 32.6719C11.6667 32.6094 12.0052 32.5208 12.3594 32.4062L11.3906 37.9062C10.9531 38.0833 10.4792 38.2135 9.96875 38.2969C9.45833 38.3802 8.875 38.4219 8.21875 38.4219C5.64583 38.4219 3.67708 37.6719 2.3125 36.1719C0.958333 34.6719 0.28125 32.4948 0.28125 29.6406C0.28125 25.1719 1.3125 21.5781 3.375 18.8594C5.4375 16.1302 8.17188 14.7656 11.5781 14.7656C12.2031 14.7656 12.8125 14.8229 13.4062 14.9375C14 15.0417 14.5885 15.1979 15.1719 15.4062L14.1719 21.0469ZM22.1938 30.3906C22.1938 31.2448 22.3083 31.8698 22.5375 32.2656C22.7667 32.651 23.1313 32.8438 23.6313 32.8438C24.0792 32.8438 24.4646 32.6667 24.7875 32.3125C25.1208 31.9583 25.4177 31.3906 25.6781 30.6094C26.0219 29.599 26.2979 28.3802 26.5063 26.9531C26.725 25.5156 26.8344 24.151 26.8344 22.8594C26.8344 22.0052 26.725 21.3802 26.5063 20.9844C26.2875 20.5781 25.949 20.375 25.4906 20.375C25.001 20.375 24.5844 20.5521 24.2406 20.9062C23.9073 21.25 23.6208 21.8073 23.3813 22.5781C23.0375 23.6302 22.751 24.8802 22.5219 26.3281C22.3031 27.776 22.1938 29.1302 22.1938 30.3906ZM22.9594 38.4531C20.8031 38.4531 19.0688 37.6719 17.7563 36.1094C16.4438 34.5469 15.7875 32.4688 15.7875 29.875C15.7875 27.7604 16.0583 25.7031 16.6 23.7031C17.1521 21.7031 17.8969 20.026 18.8344 18.6719C19.751 17.3594 20.8083 16.3802 22.0063 15.7344C23.2146 15.0885 24.5896 14.7656 26.1313 14.7656C28.3292 14.7656 30.074 15.5365 31.3656 17.0781C32.6573 18.6094 33.3031 20.6979 33.3031 23.3438C33.3031 25.4688 33.0323 27.5208 32.4906 29.5C31.949 31.4792 31.2042 33.1615 30.2563 34.5469C29.3708 35.849 28.3188 36.8281 27.1 37.4844C25.8917 38.1302 24.5115 38.4531 22.9594 38.4531ZM34.7156 38L38.3406 15.1875H44.7313L42.0125 32.3438H46.6844L45.7938 38H34.7156ZM49.2219 38L52.8469 15.1875H64.1437L63.2687 20.7188H58.3469L57.8625 23.625H62.3156L61.4875 28.9688H57.0344L56.5187 32.1094H61.4562L60.5187 38H49.2219ZM73.5406 38H67.1344L69.8219 20.9688H66.025L66.9469 15.1875H80.9313L80.0094 20.9688H76.2281L73.5406 38ZM80.9844 38L84.6094 15.1875H95.9062L95.0312 20.7188H90.1094L89.625 23.625H94.0781L93.25 28.9688H88.7969L88.2812 32.1094H93.2188L92.2812 38H80.9844Z" fill="white"/>
<path d="M0.632102 10H2.16974V6.99574H5.12784V5.72798H2.16974V3.99503H5.44744V2.72727H0.632102V10ZM6.82706 10L7.36683 8.34162H9.99112L10.5309 10H12.1786L9.67152 2.72727H7.68999L5.17933 10H6.82706ZM7.75746 7.14134L8.65234 4.3892H8.70916L9.60405 7.14134H7.75746ZM13.054 10H16.1612C17.7947 10 18.6648 9.14773 18.6648 7.99006C18.6648 6.91406 17.8942 6.2642 17.0668 6.22514V6.15412C17.8232 5.98366 18.3807 5.44744 18.3807 4.59162C18.3807 3.50142 17.571 2.72727 15.9659 2.72727H13.054V10ZM14.5916 8.7429V6.81108H15.8807C16.6193 6.81108 17.0774 7.23722 17.0774 7.83736C17.0774 8.38423 16.7045 8.7429 15.8452 8.7429H14.5916ZM14.5916 5.7706V3.97017H15.7599C16.4418 3.97017 16.8288 4.32173 16.8288 4.8473C16.8288 5.42259 16.3601 5.7706 15.7315 5.7706H14.5916ZM19.6653 10H21.2029V7.42188H22.3251L23.7029 10H25.4004L23.8556 7.1733C24.6831 6.81818 25.1412 6.0973 25.1412 5.10298C25.1412 3.65767 24.1859 2.72727 22.5346 2.72727H19.6653V10ZM21.2029 6.18608V3.98438H22.2399C23.1277 3.98438 23.5574 4.37855 23.5574 5.10298C23.5574 5.82386 23.1277 6.18608 22.247 6.18608H21.2029ZM27.7654 2.72727H26.2278V10H27.7654V2.72727ZM35.4474 5.27344C35.245 3.59375 33.9737 2.62784 32.2905 2.62784C30.3693 2.62784 28.9027 3.98438 28.9027 6.36364C28.9027 8.7358 30.3445 10.0994 32.2905 10.0994C34.1548 10.0994 35.2805 8.86009 35.4474 7.52131L33.892 7.5142C33.7464 8.2919 33.1357 8.73935 32.3153 8.73935C31.2109 8.73935 30.4616 7.91903 30.4616 6.36364C30.4616 4.85085 31.2003 3.98793 32.326 3.98793C33.1676 3.98793 33.7749 4.47443 33.892 5.27344H35.4474ZM37.8036 10L38.3434 8.34162H40.9677L41.5075 10H43.1552L40.6481 2.72727H38.6665L36.1559 10H37.8036ZM38.734 7.14134L39.6289 4.3892H39.6857L40.5806 7.14134H38.734ZM48.9231 10C51.139 10 52.4814 8.62926 52.4814 6.35653C52.4814 4.09091 51.139 2.72727 48.9444 2.72727H46.345V10H48.9231ZM47.8826 8.68253V4.04474H48.8627C50.2264 4.04474 50.9473 4.74077 50.9473 6.35653C50.9473 7.9794 50.2264 8.68253 48.8592 8.68253H47.8826ZM53.6204 10H58.5352V8.73224H55.158V6.99574H58.2688V5.72798H55.158V3.99503H58.521V2.72727H53.6204V10Z" fill="white"/>
<g clip-path="url(#clip0)">
<path d="M113.048 15.383C113.199 14.4289 112.537 13.6546 111.571 13.6546H101.071C100.105 13.6546 99.1986 14.4289 99.0475 15.383C98.8964 16.3371 99.5578 17.1115 100.524 17.1115H111.024C111.99 17.1115 112.896 16.3371 113.048 15.383Z" fill="#F6CD64"/>
<path d="M110.477 20.5684H103.477C102.511 20.5684 101.604 21.3427 101.453 22.2968C101.302 23.251 101.963 24.0253 102.929 24.0253H109.929C110.895 24.0253 111.802 23.251 111.953 22.2968C112.104 21.3427 111.443 20.5684 110.477 20.5684Z" fill="#F6CD64"/>
<path d="M109.381 27.4822H105.881C104.915 27.4822 104.008 28.2566 103.857 29.2107C103.706 30.1648 104.367 30.9391 105.333 30.9391H108.833C109.799 30.9391 110.706 30.1648 110.857 29.2107C111.008 28.2566 110.347 27.4822 109.381 27.4822Z" fill="#F6CD64"/>
<path d="M153.023 26.5938L149.142 17.9515C148.91 17.4295 148.389 17.1115 147.773 17.1115H135.523C134.557 17.1115 133.651 17.8858 133.5 18.8399L130.762 36.1245C130.611 37.0786 131.272 37.8529 132.238 37.8529H149.738C150.704 37.8529 151.611 37.0786 151.762 36.1245L153.131 27.4822C153.181 27.1676 153.145 26.86 153.023 26.5938Z" fill="#F66864"/>
<path d="M140.226 20.5684H146.235L149.34 27.4822H139.131L140.226 20.5684Z" fill="#FAFAFA"/>
<path d="M136.618 10.1977H112.118C111.152 10.1977 110.246 10.972 110.094 11.9261L106.262 36.1245C106.111 37.0786 106.772 37.8529 107.738 37.8529H133.988L138.094 11.9261C138.246 10.972 137.584 10.1977 136.618 10.1977Z" fill="#F6CD64"/>
<path d="M142.465 39.5814C144.398 39.5814 146.21 38.0337 146.512 36.1245C146.814 34.2153 145.493 32.6676 143.56 32.6676C141.627 32.6676 139.814 34.2153 139.512 36.1245C139.21 38.0337 140.532 39.5814 142.465 39.5814Z" fill="#FAFAFA"/>
<path d="M142.19 41.3098C139.296 41.3098 137.309 38.9833 137.762 36.1245C138.215 33.2656 140.939 30.9391 143.833 30.9391C146.728 30.9391 148.715 33.2656 148.262 36.1245C147.809 38.9833 145.085 41.3098 142.19 41.3098ZM143.285 34.396C142.323 34.396 141.412 35.1738 141.262 36.1245C141.111 37.0751 141.775 37.8529 142.738 37.8529C143.7 37.8529 144.611 37.0751 144.762 36.1245C144.912 35.1738 144.248 34.396 143.285 34.396Z" fill="#4F4F4F"/>
<path d="M133.988 37.8529H107.738C106.772 37.8529 106.111 37.0786 106.262 36.1245L107.083 30.9391H135.083L133.988 37.8529Z" fill="#F66864"/>
<path d="M117.965 39.5814C119.898 39.5814 121.71 38.0337 122.012 36.1245C122.314 34.2153 120.993 32.6676 119.06 32.6676C117.127 32.6676 115.314 34.2153 115.012 36.1245C114.71 38.0337 116.032 39.5814 117.965 39.5814Z" fill="#FAFAFA"/>
<path d="M117.69 41.3098C114.796 41.3098 112.809 38.9833 113.262 36.1245C113.715 33.2656 116.439 30.9391 119.333 30.9391C122.228 30.9391 124.215 33.2656 123.762 36.1245C123.309 38.9833 120.585 41.3098 117.69 41.3098ZM118.785 34.396C117.819 34.396 116.912 35.1738 116.762 36.1245C116.611 37.0751 117.272 37.8529 118.238 37.8529C119.204 37.8529 120.111 37.0751 120.262 36.1245C120.412 35.1738 119.751 34.396 118.785 34.396Z" fill="#4F4F4F"/>
</g>
<defs>
<clipPath id="clip0">
<rect width="56" height="40.3068" fill="white" transform="matrix(1 0 -0.156434 0.987688 100.533 6)"/>
</clipPath>
</defs>
</svg>
